<svg width="200" height="200" viewBox="0 0 200 200" fill="none" xmlns="http://www.w3.org/2000/svg">
<circle cx="100" cy="100" r="100" fill="#1E1E2E"/>
<path d="M42.98 123L58.66 76.8H75.18L90.86 123H78.54L67.48 85.62H66.36L55.3 123H42.98ZM52.29 114.32V106.76H83.23V114.32H52.29ZM96.664 123V76.8H116.334C118.901 76.8 121.234 77.01 123.334 77.43C125.434 77.8033 127.277 78.3867 128.864 79.18C130.497 79.9267 131.874 80.86 132.994 81.98C134.114 83.0533 134.954 84.3133 135.514 85.76C136.074 87.16 136.354 88.7233 136.354 90.45C136.354 92.0833 136.097 93.5533 135.584 94.86C135.071 96.1667 134.277 97.31 133.204 98.29C132.177 99.27 130.871 100.063 129.284 100.67C127.697 101.277 125.854 101.72 123.754 102V103.05C126.414 103.33 128.467 103.937 129.914 104.87C131.407 105.757 132.551 106.947 133.344 108.44C134.137 109.933 134.837 111.73 135.444 113.83L138.104 123H125.574L123.544 114.53C123.124 112.663 122.541 111.217 121.794 110.19C121.094 109.163 120.184 108.463 119.064 108.09C117.944 107.67 116.544 107.46 114.864 107.46H107.934V123H96.664ZM107.934 99.13H115.564C118.411 99.13 120.627 98.57 122.214 97.45C123.801 96.33 124.594 94.58 124.594 92.2C124.594 89.8667 123.871 88.14 122.424 87.02C120.977 85.9 118.784 85.34 115.844 85.34H107.934V99.13Z" fill="#CDD6F4"/>
<path d="M149.529 123.91C147.103 123.91 145.283 123.397 144.069 122.37C142.903 121.343 142.319 119.757 142.319 117.61C142.319 115.417 142.903 113.807 144.069 112.78C145.283 111.753 147.103 111.24 149.529 111.24C152.003 111.24 153.846 111.753 155.059 112.78C156.273 113.807 156.879 115.417 156.879 117.61C156.879 121.81 154.429 123.91 149.529 123.91Z" fill="#FAB387"/>
</svg>
